#N canvas 481 158 517 414 10;
#X obj 80 346 dac~;
#X obj 80 237 osc~ 440;
#X obj 136 4 tgl 15 0 empty empty empty 17 7 0 10 -262144 -1 -1 1 1
;
#X obj 267 58 float;
#X msg 294 25 0;
#X obj 317 57 + 1;
#X obj 267 83 mod 5;
#X obj 266 217 osc~;
#X obj 266 194 line~ 523 0;
#X obj 267 131 trigger b b;
#X obj 136 31 metro 100;
#X obj 267 107 route 0;
#X msg 267 162 0 200;
#X msg 317 162 261;
#N canvas 66 105 283 153 \$0-duck-main 0;
#X obj 54 67 duck~;
#X obj 109 29 inlet~;
#X obj 54 30 inlet~;
#X obj 53 101 outlet~;
#X obj 177 31 block~ 512;
#X connect 0 0 3 0;
#X connect 1 0 0 1;
#X connect 2 0 0 0;
#X restore 80 287 pd \$0-duck-main;
#X obj 266 256 *~ 1;
#X connect 1 0 14 0;
#X connect 2 0 4 0;
#X connect 2 0 10 0;
#X connect 3 0 6 0;
#X connect 3 0 5 0;
#X connect 4 0 3 1;
#X connect 5 0 3 1;
#X connect 6 0 11 0;
#X connect 7 0 15 0;
#X connect 8 0 7 0;
#X connect 9 0 12 0;
#X connect 9 1 13 0;
#X connect 10 0 3 0;
#X connect 11 0 9 0;
#X connect 12 0 8 0;
#X connect 13 0 8 0;
#X connect 14 0 0 0;
#X connect 14 0 0 1;
#X connect 15 0 14 1;
#X connect 15 0 0 1;
#X connect 15 0 0 0;
