#N canvas 641 189 623 388 10;
#X obj 106 88 horloge;
#X obj 106 125 print time;
#X obj 106 50 bng 15 250 50 0 empty empty empty 17 7 0 10 -262144 -1
-1;
#X obj 206 88 horloge;
#X obj 291 106 multipouet;
#X connect 0 0 1 0;
#X connect 2 0 0 0;
#X connect 2 0 3 0;
#X connect 2 0 4 0;
#X connect 3 0 1 0;
#X connect 4 0 1 0;
